<!-- icon666.com - MILLIONS vector ICONS FREE --><svg viewBox="0 0 176 176" xmlns="http://www.w3.org/2000/svg"><g id="Layer_2" data-name="Layer 2"><g id="_14.tiktok" data-name="14.tiktok"><path d="m173 31.47a32 32 0 0 0 -28.48-28.47 530 530 0 0 0 -113 0 32 32 0 0 0 -28.52 28.47 532.69 532.69 0 0 0 0 113.05 32 32 0 0 0 28.48 28.48 530 530 0 0 0 113 0 32 32 0 0 0 28.52-28.48 532.69 532.69 0 0 0 0-113.05zm-36.62 45.2h-8.58a34.72 34.72 0 0 1 -18-5v36.23a35.1 35.1 0 1 1 -35.1-35.09h8.6v17.11h-8.57a18 18 0 1 0 18 18v-74.92h17.13v8.58a18 18 0 0 0 18 18h8.57z"></path></g></g></svg>